<svg width="240" height="240" viewBox="0 0 240 240" fill="none" xmlns="http://www.w3.org/2000/svg">
<rect width="240" height="240" rx="48" fill="#E0F2FE"/>
<circle cx="120" cy="88" r="40" fill="#F8FAFC"/>
<path d="M120 132C82.4446 132 52 162.445 52 200V240H188V200C188 162.445 157.555 132 120 132Z" fill="#0EA5E9"/>
<circle cx="104" cy="82" r="4" fill="#0F172A"/>
<circle cx="136" cy="82" r="4" fill="#0F172A"/>
<path d="M104 101C107.5 106.333 112.833 109 120 109C127.167 109 132.5 106.333 136 101" stroke="#0F172A" stroke-width="6" stroke-linecap="round"/>
<path d="M84 54C94.1358 41.5495 107.62 35 124.454 35C142.596 35 156.445 42.8735 166 58.6205V83H157.5C144.5 83 132.5 78.5 121.5 69.5L115.5 64.5L111.5 70C104.167 80 93 85 78 85H74V67C74 61.6987 77.3333 57.3654 84 54Z" fill="#0F172A"/>
</svg>
